<svg width="21" height="21" viewBox="0 0 21 21" fill="none" xmlns="http://www.w3.org/2000/svg">
<path d="M12.6145 19.5542L12.5976 13.045C12.6325 12.7964 12.8336 12.5711 13.0945 12.5233L19.6186 12.5106C19.8678 12.5456 20.0688 12.3204 20.1154 11.9889L20.1178 8.35557C20.1528 8.10697 19.9269 7.90621 19.5946 7.85951L13.0704 7.87214C12.8212 7.83712 12.5954 7.63636 12.5472 7.37609L12.5303 0.866862C12.5652 0.618259 12.3393 0.4175 12.007 0.370804L8.36533 0.366029C8.11613 0.331007 7.91506 0.556259 7.86848 0.88773L7.88546 7.39695C7.85053 7.64556 7.64946 7.87081 7.38861 7.91866L0.864438 7.9313C0.615241 7.89627 0.414171 8.12153 0.367586 8.453L0.365169 12.0863C0.33023 12.335 0.556145 12.5357 0.888407 12.5824L7.41258 12.5698C7.66178 12.6048 7.88769 12.8055 7.93582 13.0658L7.95276 19.575C7.91782 19.8236 8.14373 20.0244 8.476 20.0711L12.1177 20.0759C12.3785 20.028 12.5796 19.8028 12.6145 19.5542Z" fill="#FDD08D"/>
</svg>
